<?xml version="1.0" standalone="no"?>
<!DOCTYPE svg PUBLIC "-//W3C//DTD SVG 20010904//EN"
 "http://www.w3.org/TR/2001/REC-SVG-20010904/DTD/svg10.dtd">
<svg version="1.0" xmlns="http://www.w3.org/2000/svg"
 width="1024.000000pt" height="1024.000000pt" viewBox="0 0 1024.000000 1024.000000"
 preserveAspectRatio="xMidYMid meet">
<metadata>
Created by potrace 1.11, written by Peter Selinger 2001-2013
</metadata>
<g transform="translate(0.000000,1024.000000) scale(0.100000,-0.100000)"
fill="#000000" stroke="none">
<path d="M0 5120 l0 -5120 5120 0 5120 0 0 5120 0 5120 -5120 0 -5120 0 0
-5120z m7193 3285 c200 -42 370 -212 412 -412 22 -102 22 -3864 0 -3966 -38
-181 -170 -331 -348 -396 l-72 -26 -592 -5 -592 -5 -258 -254 c-142 -140 -323
-319 -403 -398 l-145 -143 -405 400 -405 399 -570 0 c-617 1 -629 2 -742 57
-118 57 -217 167 -270 300 l-28 69 0 1980 0 1980 23 64 c65 179 218 318 395
356 95 21 3902 21 4000 0z m-4491 -6085 c174 -20 271 -82 304 -196 18 -64 14
-150 -10 -208 -39 -95 -164 -179 -312 -212 l-74 -16 0 -114 0 -115 -102 3
-103 3 2 419 c2 231 5 422 9 425 5 5 94 16 169 19 17 1 69 -3 117 -8z m2420
-228 c34 -117 62 -211 64 -209 2 1 30 97 62 212 l59 210 92 3 91 3 0 -426 0
-425 -96 0 -97 0 6 223 7 222 -39 -130 -38 -130 -51 -3 -51 -3 -20 68 c-11 37
-28 97 -39 133 l-20 65 6 -223 5 -223 -94 3 -94 3 -3 410 c-1 225 0 416 3 423
3 9 29 12 96 10 l91 -3 60 -213z m-1445 52 c98 -47 153 -143 161 -283 14 -245
-131 -421 -346 -421 -92 0 -153 22 -207 76 -146 147 -118 462 54 588 106 78
226 92 338 40z m838 11 c45 -18 95 -72 124 -135 23 -50 26 -67 26 -175 0 -114
-2 -123 -32 -187 -58 -122 -176 -205 -309 -216 l-64 -5 0 -102 0 -103 -50 -6
c-27 -3 -72 -9 -100 -12 l-50 -6 -2 467 c-2 257 0 469 3 471 4 2 45 7 91 10
l85 7 7 -33 6 -33 23 20 c64 59 156 73 242 38z m1648 0 c56 -23 102 -70 127
-127 26 -60 43 -173 34 -228 l-6 -37 -200 -6 c-111 -4 -203 -8 -205 -11 -9 -8
26 -63 51 -80 39 -25 120 -43 235 -51 l104 -7 -7 -75 c-3 -41 -9 -79 -12 -85
-8 -12 -198 -5 -279 11 -188 36 -282 127 -300 287 -19 161 68 324 208 394 51
26 71 30 137 30 46 0 92 -6 113 -15z m904 -13 c17 -12 42 -43 55 -70 22 -45
23 -57 26 -329 l3 -283 -100 0 -101 0 0 208 c-1 232 -8 288 -40 314 -26 21
-82 23 -125 4 l-30 -12 4 -257 3 -257 -100 0 -100 0 -7 318 c-3 174 -7 328 -8
342 -2 24 0 25 86 34 96 10 107 6 107 -42 l0 -23 43 29 c62 43 94 52 177 49
60 -2 82 -7 107 -25z m523 -240 c5 -252 5 -254 29 -273 28 -23 81 -25 121 -4
l30 16 0 259 0 260 98 0 99 0 6 -347 c3 -191 5 -348 4 -349 -1 -1 -44 -4 -94
-8 l-93 -7 0 36 c0 38 -10 44 -31 18 -29 -34 -111 -63 -179 -63 -87 0 -135 27
-169 95 -26 49 -26 52 -29 331 -4 326 -18 293 118 291 l85 -2 5 -253z"/>
<path d="M3582 7078 l3 -263 265 0 265 0 3 263 2 262 -270 0 -270 0 2 -262z"/>
<path d="M4660 7075 l0 -265 1073 2 1072 3 3 263 2 262 -1075 0 -1075 0 0
-265z"/>
<path d="M3582 6008 l3 -263 265 0 265 0 3 263 2 262 -270 0 -270 0 2 -262z"/>
<path d="M4660 6005 l0 -265 1073 2 1072 3 3 263 2 262 -1075 0 -1075 0 0
-265z"/>
<path d="M3584 5195 c-3 -6 -3 -125 -2 -264 l3 -254 265 1 265 1 0 261 0 261
-264 2 c-171 1 -265 -2 -267 -8z"/>
<path d="M4660 4940 l0 -265 1073 1 1072 1 0 262 0 262 -1072 2 -1073 2 0
-265z"/>
<path d="M2610 2005 l0 -145 60 0 c106 0 140 34 140 139 0 100 -52 149 -157
150 l-43 1 0 -145z"/>
<path d="M3459 1996 c-41 -24 -54 -68 -54 -186 0 -89 3 -111 22 -146 43 -80
137 -85 180 -9 19 34 23 55 23 140 0 104 -17 163 -53 193 -24 21 -88 24 -118
8z"/>
<path d="M4288 1999 l-28 -11 0 -183 0 -184 35 -7 c106 -20 174 53 175 187 0
77 -21 147 -55 179 -27 25 -87 34 -127 19z"/>
<path d="M5959 1995 c-26 -14 -41 -43 -53 -97 -7 -32 -4 -33 140 -22 l81 7 -7
31 c-4 17 -12 42 -19 54 -22 41 -92 54 -142 27z"/>
</g>
</svg>
